#define quit_width 16
#define quit_height 16
static char quit_bits[] = {
   0xc0, 0x07, 0xf0, 0x1f, 0x38, 0x39, 0x18, 0x31, 0x18, 0x31, 0xf8, 0x3f,
   0xf0, 0x1e, 0xe0, 0x0e, 0xe0, 0x0f, 0x60, 0x0c, 0xc0, 0x07, 0x8c, 0x33,
   0x3c, 0x38, 0xc0, 0x07, 0x78, 0x3c, 0x18, 0x30};
