#define redo_width 16
#define redo_height 16
static char redo_bits[] = {
   0x00, 0x00, 0x00, 0x00, 0xfe, 0x7f, 0x02, 0x40, 0x82, 0x5f, 0x82, 0x50,
   0x82, 0x50, 0x82, 0x50, 0x82, 0x5f, 0x02, 0x40, 0x02, 0x40, 0x02, 0x40,
   0xfe, 0x7f, 0x00, 0x00, 0x00, 0x00, 0x00, 0x00};
