#define zout_width 16
#define zout_height 16
static char zout_bits[] = {
   0x00, 0x00, 0x00, 0x00, 0x00, 0x00, 0x00, 0x00, 0x00, 0x1c, 0x00, 0x22,
   0x00, 0x20, 0x44, 0x20, 0x28, 0x18, 0x10, 0x04, 0x28, 0x02, 0x44, 0x02,
   0x00, 0x3e, 0x00, 0x00, 0x00, 0x00, 0x00, 0x00};
